<?xml version="1.0" encoding="UTF-8" standalone="no"?>
<svg
   xmlns:dc="http://purl.org/dc/elements/1.1/"
   xmlns:cc="http://creativecommons.org/ns#"
   xmlns:rdf="http://www.w3.org/1999/02/22-rdf-syntax-ns#"
   xmlns:svg="http://www.w3.org/2000/svg"
   xmlns="http://www.w3.org/2000/svg"
   xmlns:sodipodi="http://sodipodi.sourceforge.net/DTD/sodipodi-0.dtd"
   xmlns:inkscape="http://www.inkscape.org/namespaces/inkscape"
   viewBox="0 0 36 36"
   class="a8c37x1j ms05siws hwsy1cff b7h9ocf4"
   fill="url(#jsc_c_2)"
   height="40"
   width="40"
   version="1.1"
   id="svg13"
   sodipodi:docname="facebook.svg"
   inkscape:version="0.92.3 (2405546, 2018-03-11)">
  <metadata
     id="metadata17">
    <rdf:RDF>
      <cc:Work
         rdf:about="">
        <dc:format>image/svg+xml</dc:format>
        <dc:type
           rdf:resource="http://purl.org/dc/dcmitype/StillImage" />
      </cc:Work>
    </rdf:RDF>
  </metadata>
  <sodipodi:namedview
     pagecolor="#ffffff"
     bordercolor="#666666"
     borderopacity="1"
     objecttolerance="10"
     gridtolerance="10"
     guidetolerance="10"
     inkscape:pageopacity="0"
     inkscape:pageshadow="2"
     inkscape:window-width="640"
     inkscape:window-height="480"
     id="namedview15"
     showgrid="false"
     inkscape:zoom="66.75088"
     inkscape:cx="26.794243"
     inkscape:cy="31.049484"
     inkscape:window-x="0"
     inkscape:window-y="0"
     inkscape:window-maximized="0"
     inkscape:current-layer="svg13" />
  <defs
     id="defs7">
    <linearGradient
       x1="50%"
       x2="50%"
       y1="97.0782153%"
       y2="0%"
       id="jsc_c_2">
      <stop
         offset="0%"
         stop-color="#0062E0"
         id="stop2" />
      <stop
         offset="100%"
         stop-color="#19AFFF"
         id="stop4" />
    </linearGradient>
  </defs>
  <path
     d="M15 35.8C6.5 34.3 0 26.9 0 18 0 8.1 8.1 0 18 0s18 8.1 18 18c0 8.9-6.5 16.3-15 17.8l-1-.8h-4l-1 .8z"
     id="path9" />
  <path
     class="p361ku9c"
     d="m 25,23 0.8,-5 H 21 V 14.5 C 21,13.1 21.5,12 23.7,12 H 26 L 26,7.3730341 C 24.7,7.1730341 23.3,7 22,7 17.9,7 15,9.5 15,14 v 4 h -4.5 v 5 H 15 v 12.7 c 1,0.2 2,0.3 3,0.3 1,0 2,-0.1 3,-0.3 V 23 Z"
     id="path11"
     inkscape:connector-curvature="0"
     style="fill:#ffffff"
     sodipodi:nodetypes="cccssccsscccccsccc" />
</svg>
