<?xml version="1.0" encoding="UTF-8" standalone="no"?>
<svg
   xmlns:dc="http://purl.org/dc/elements/1.1/"
   xmlns:cc="http://creativecommons.org/ns#"
   xmlns:rdf="http://www.w3.org/1999/02/22-rdf-syntax-ns#"
   xmlns:svg="http://www.w3.org/2000/svg"
   xmlns="http://www.w3.org/2000/svg"
   xmlns:sodipodi="http://sodipodi.sourceforge.net/DTD/sodipodi-0.dtd"
   xmlns:inkscape="http://www.inkscape.org/namespaces/inkscape"
   role="img"
   viewBox="0 0 24 24"
   version="1.1"
   id="svg6"
   sodipodi:docname="link.svg"
   inkscape:version="0.92.3 (2405546, 2018-03-11)">
  <metadata
     id="metadata12">
    <rdf:RDF>
      <cc:Work
         rdf:about="">
        <dc:format>image/svg+xml</dc:format>
        <dc:type
           rdf:resource="http://purl.org/dc/dcmitype/StillImage" />
        <dc:title></dc:title>
      </cc:Work>
    </rdf:RDF>
  </metadata>
  <defs
     id="defs10" />
  <sodipodi:namedview
     pagecolor="#ffffff"
     bordercolor="#666666"
     borderopacity="1"
     objecttolerance="10"
     gridtolerance="10"
     guidetolerance="10"
     inkscape:pageopacity="0"
     inkscape:pageshadow="2"
     inkscape:window-width="799"
     inkscape:window-height="839"
     id="namedview8"
     showgrid="false"
     inkscape:zoom="9.8333333"
     inkscape:cx="11.537431"
     inkscape:cy="15.035127"
     inkscape:window-x="0"
     inkscape:window-y="0"
     inkscape:window-maximized="0"
     inkscape:current-layer="svg6" />
  <g
     id="g4"
     transform="matrix(0.65287505,0,0,0.6378172,-3.4542222,-2.9221196)"
     style="fill-rule:evenodd">
    <path
       d="m 19,18.3 h 6.5 v 3.266 C 26.437,19.688 28.838,18 32.445,18 39.359,18 41,21.738 41,28.597 V 41.3 H 34 V 30.159 C 34,26.253 33.063,24.05 30.68,24.05 27.375,24.05 26,26.425 26,30.159 V 41.3 H 19 Z M 7,41 h 7 V 18 H 7 Z M 15,10.5 C 15,12.985 12.985,15 10.5,15 8.015,15 6,12.985 6,10.5 6,8.015 8.015,6 10.5,6 12.985,6 15,8.015 15,10.5 Z"
       id="path2"
       inkscape:connector-curvature="0"
       style="fill:#223344"
       sodipodi:nodetypes="cccssccsssccccccccsssss" />
    <ellipse
       id="path8"
       style="fill:#000000;fill-opacity:1;stroke-width:0.68099624"
       ry="4.5063648"
       rx="4.5008726"
       cy="10.506667"
       cx="10.494251" />
    <rect
       style="fill:#000000;fill-opacity:1;stroke-width:0.7718091"
       id="rect4566"
       width="7.032599"
       height="23.029844"
       x="6.9785023"
       y="17.970343" />
    <path
       style="color:#000000;font-style:normal;font-variant:normal;font-weight:normal;font-stretch:normal;font-size:medium;line-height:normal;font-family:sans-serif;font-variant-ligatures:normal;font-variant-position:normal;font-variant-caps:normal;font-variant-numeric:normal;font-variant-alternates:normal;font-feature-settings:normal;text-indent:0;text-align:start;text-decoration:none;text-decoration-line:none;text-decoration-style:solid;text-decoration-color:#000000;letter-spacing:normal;word-spacing:normal;text-transform:none;writing-mode:lr-tb;direction:ltr;text-orientation:mixed;dominant-baseline:auto;baseline-shift:baseline;text-anchor:start;white-space:normal;shape-padding:0;clip-rule:nonzero;display:inline;overflow:visible;visibility:visible;opacity:1;isolation:auto;mix-blend-mode:normal;color-interpolation:sRGB;color-interpolation-filters:linearRGB;solid-color:#000000;solid-opacity:1;vector-effect:none;fill-opacity:1;fill-rule:nonzero;stroke:none;stroke-width:1;stroke-linecap:butt;stroke-linejoin:miter;stroke-miterlimit:4;stroke-dasharray:none;stroke-dashoffset:0;stroke-opacity:1;paint-order:markers fill stroke;color-rendering:auto;image-rendering:auto;shape-rendering:auto;text-rendering:auto;enable-background:accumulate"
       d="m 10.5,5.5 c -2.7552884,0 -5,2.2447116 -5,5 0,2.755288 2.2447116,5 5,5 2.755288,0 5,-2.244712 5,-5 0,-2.7552884 -2.244712,-5 -5,-5 z m 0,1 c 2.214712,0 4,1.7852884 4,4 0,2.214712 -1.785288,4 -4,4 -2.2147116,0 -4,-1.785288 -4,-4 0,-2.2147116 1.7852884,-4 4,-4 z m -4,11 v 24 H 7 14.5 v -24 z m 25.945312,0 C 29.521032,17.5 27.329609,18.577395 26,20.027344 v -2.226563 h -7.5 v 0.5 23.5 h 8 V 30.158203 c 0,-1.805627 0.341213,-3.230053 1.007812,-4.164062 0.6666,-0.93401 1.639144,-1.44336 3.171876,-1.44336 1.037422,0 1.640731,0.401357 2.109374,1.316407 C 33.257706,26.782237 33.5,28.245184 33.5,30.158203 v 11.642578 h 8 V 28.597656 C 41.5,25.128282 41.102699,22.377762 39.722656,20.4375 38.342614,18.497238 35.99242,17.5 32.445312,17.5 Z M 7.5,18.5 h 6 v 22 h -6 z"
       id="path4790"
       inkscape:connector-curvature="0"
       sodipodi:nodetypes="ssssssssssccccccsccccccssscsccsssccccc" />
  </g>
</svg>
